<svg width="99" height="1060" viewBox="0 0 99 1060" fill="none" xmlns="http://www.w3.org/2000/svg">
<g clip-path="url(#clip0)">
<circle cy="17" r="16.25" fill="#009F65" stroke="#009F65" stroke-width="0.5"/>
<circle cx="33" cy="17" r="16.25" fill="#219DFF" stroke="#219DFF" stroke-width="0.5"/>
<circle cx="66" cy="17" r="16.25" fill="#FF4136" stroke="#FF4136" stroke-width="0.5"/>
<circle cx="99" cy="17" r="16.25" fill="#009F65" stroke="#009F65" stroke-width="0.5"/>
<circle cx="16.5" cy="45.5" r="16.25" fill="#FF4136" stroke="#FF4136" stroke-width="0.5"/>
<circle cx="49.5" cy="45.5" r="16.25" fill="#009F65" stroke="#009F65" stroke-width="0.5"/>
<circle cx="82.5" cy="45.5" r="16.25" fill="#219DFF" stroke="#219DFF" stroke-width="0.5"/>
<circle cy="74" r="16.25" fill="#009F65" stroke="#009F65" stroke-width="0.5"/>
<circle cx="33" cy="74" r="16.25" fill="#219DFF" stroke="#219DFF" stroke-width="0.5"/>
<circle cx="66" cy="74" r="16.25" fill="#FF4136" stroke="#FF4136" stroke-width="0.5"/>
<circle cx="99" cy="74" r="16.25" fill="#009F65" stroke="#009F65" stroke-width="0.5"/>
<circle cx="16.5" cy="102.5" r="16.25" fill="#FF4136" stroke="#FF4136" stroke-width="0.5"/>
<circle cx="49.5" cy="102.5" r="16.25" fill="#009F65" stroke="#009F65" stroke-width="0.5"/>
<circle cx="82.5" cy="102.5" r="16.25" fill="#219DFF" stroke="#219DFF" stroke-width="0.5"/>
<circle cy="131" r="16.25" fill="#009F65" stroke="#009F65" stroke-width="0.5"/>
<circle cx="33" cy="131" r="16.25" fill="#219DFF" stroke="#219DFF" stroke-width="0.5"/>
<circle cx="66" cy="131" r="16.25" fill="#FF4136" stroke="#FF4136" stroke-width="0.5"/>
<circle cx="99" cy="131" r="16.25" fill="#009F65" stroke="#009F65" stroke-width="0.5"/>
<circle cx="16.5" cy="159.5" r="16.25" fill="#FF4136" stroke="#FF4136" stroke-width="0.5"/>
<circle cx="49.5" cy="159.5" r="16.25" fill="#009F65" stroke="#009F65" stroke-width="0.5"/>
<circle cx="82.5" cy="159.5" r="16.25" fill="#219DFF" stroke="#219DFF" stroke-width="0.5"/>
<circle cy="188" r="16.25" fill="#009F65" stroke="#009F65" stroke-width="0.5"/>
<circle cx="33" cy="188" r="16.25" fill="#219DFF" stroke="#219DFF" stroke-width="0.5"/>
<circle cx="66" cy="188" r="16.25" fill="#FF4136" stroke="#FF4136" stroke-width="0.5"/>
<circle cx="99" cy="188" r="16.25" fill="#009F65" stroke="#009F65" stroke-width="0.5"/>
<circle cx="16.5" cy="216.5" r="16.25" fill="#FF4136" stroke="#FF4136" stroke-width="0.5"/>
<circle cx="49.5" cy="216.5" r="16.25" fill="#009F65" stroke="#009F65" stroke-width="0.5"/>
<circle cx="82.5" cy="216.5" r="16.25" fill="#219DFF" stroke="#219DFF" stroke-width="0.5"/>
<circle cy="245" r="16.25" fill="#009F65" stroke="#009F65" stroke-width="0.5"/>
<circle cx="33" cy="245" r="16.25" fill="#219DFF" stroke="#219DFF" stroke-width="0.5"/>
<circle cx="66" cy="245" r="16.25" fill="#FF4136" stroke="#FF4136" stroke-width="0.5"/>
<circle cx="99" cy="245" r="16.25" fill="#009F65" stroke="#009F65" stroke-width="0.5"/>
<circle cx="16.5" cy="273.5" r="16.25" fill="#FF4136" stroke="#FF4136" stroke-width="0.5"/>
<circle cx="49.5" cy="273.5" r="16.25" fill="#009F65" stroke="#009F65" stroke-width="0.5"/>
<circle cx="82.5" cy="273.5" r="16.25" fill="#219DFF" stroke="#219DFF" stroke-width="0.5"/>
<circle cy="302" r="16.25" fill="#009F65" stroke="#009F65" stroke-width="0.5"/>
<circle cx="33" cy="302" r="16.25" fill="#219DFF" stroke="#219DFF" stroke-width="0.5"/>
<circle cx="66" cy="302" r="16.25" fill="#FF4136" stroke="#FF4136" stroke-width="0.5"/>
<circle cx="99" cy="302" r="16.25" fill="#009F65" stroke="#009F65" stroke-width="0.5"/>
<circle cx="16.5" cy="330.5" r="16.25" fill="#FF4136" stroke="#FF4136" stroke-width="0.5"/>
<circle cx="49.5" cy="330.5" r="16.25" fill="#009F65" stroke="#009F65" stroke-width="0.5"/>
<circle cx="82.5" cy="330.5" r="16.25" fill="#219DFF" stroke="#219DFF" stroke-width="0.5"/>
<circle cy="359" r="16.25" fill="#009F65" stroke="#009F65" stroke-width="0.5"/>
<circle cx="33" cy="359" r="16.25" fill="#219DFF" stroke="#219DFF" stroke-width="0.5"/>
<circle cx="66" cy="359" r="16.25" fill="#FF4136" stroke="#FF4136" stroke-width="0.5"/>
<circle cx="99" cy="359" r="16.25" fill="#009F65" stroke="#009F65" stroke-width="0.5"/>
<circle cx="16.5" cy="387.5" r="16.25" fill="#FF4136" stroke="#FF4136" stroke-width="0.5"/>
<circle cx="49.5" cy="387.5" r="16.25" fill="#009F65" stroke="#009F65" stroke-width="0.5"/>
<circle cx="82.5" cy="387.5" r="16.25" fill="#219DFF" stroke="#219DFF" stroke-width="0.5"/>
<circle cy="416" r="16.25" fill="#009F65" stroke="#009F65" stroke-width="0.5"/>
<circle cx="33" cy="416" r="16.25" fill="#219DFF" stroke="#219DFF" stroke-width="0.5"/>
<circle cx="66" cy="416" r="16.25" fill="#FF4136" stroke="#FF4136" stroke-width="0.5"/>
<circle cx="99" cy="416" r="16.25" fill="#009F65" stroke="#009F65" stroke-width="0.5"/>
<circle cx="16.5" cy="444.5" r="16.25" fill="#FF4136" stroke="#FF4136" stroke-width="0.5"/>
<circle cx="49.5" cy="444.5" r="16.25" fill="#009F65" stroke="#009F65" stroke-width="0.5"/>
<circle cx="82.5" cy="444.5" r="16.25" fill="#219DFF" stroke="#219DFF" stroke-width="0.5"/>
<circle cy="473" r="16.25" fill="#009F65" stroke="#009F65" stroke-width="0.5"/>
<circle cx="33" cy="473" r="16.25" fill="#219DFF" stroke="#219DFF" stroke-width="0.5"/>
<circle cx="66" cy="473" r="16.25" fill="#FF4136" stroke="#FF4136" stroke-width="0.5"/>
<circle cx="99" cy="473" r="16.25" fill="#009F65" stroke="#009F65" stroke-width="0.5"/>
<circle cx="16.5" cy="501.5" r="16.25" fill="#FF4136" stroke="#FF4136" stroke-width="0.5"/>
<circle cx="49.5" cy="501.5" r="16.25" fill="#009F65" stroke="#009F65" stroke-width="0.5"/>
<circle cx="82.5" cy="501.5" r="16.25" fill="#219DFF" stroke="#219DFF" stroke-width="0.5"/>
<circle cy="530" r="16.25" fill="#009F65" stroke="#009F65" stroke-width="0.5"/>
<circle cx="33" cy="530" r="16.25" fill="#219DFF" stroke="#219DFF" stroke-width="0.5"/>
<circle cx="66" cy="530" r="16.25" fill="#FF4136" stroke="#FF4136" stroke-width="0.5"/>
<circle cx="99" cy="530" r="16.25" fill="#009F65" stroke="#009F65" stroke-width="0.5"/>
<circle cx="16.5" cy="558.5" r="16.25" fill="#FF4136" stroke="#FF4136" stroke-width="0.5"/>
<circle cx="49.5" cy="558.5" r="16.25" fill="#009F65" stroke="#009F65" stroke-width="0.5"/>
<circle cx="82.5" cy="558.5" r="16.25" fill="#219DFF" stroke="#219DFF" stroke-width="0.5"/>
<circle cy="587" r="16.25" fill="#009F65" stroke="#009F65" stroke-width="0.5"/>
<circle cx="33" cy="587" r="16.25" fill="#219DFF" stroke="#219DFF" stroke-width="0.5"/>
<circle cx="66" cy="587" r="16.25" fill="#FF4136" stroke="#FF4136" stroke-width="0.5"/>
<circle cx="99" cy="587" r="16.25" fill="#009F65" stroke="#009F65" stroke-width="0.5"/>
<circle cx="16.5" cy="615.5" r="16.25" fill="#FF4136" stroke="#FF4136" stroke-width="0.5"/>
<circle cx="49.5" cy="615.5" r="16.25" fill="#009F65" stroke="#009F65" stroke-width="0.5"/>
<circle cx="82.5" cy="615.5" r="16.25" fill="#219DFF" stroke="#219DFF" stroke-width="0.5"/>
<circle cy="644" r="16.25" fill="#009F65" stroke="#009F65" stroke-width="0.5"/>
<circle cx="33" cy="644" r="16.25" fill="#219DFF" stroke="#219DFF" stroke-width="0.5"/>
<circle cx="66" cy="644" r="16.25" fill="#FF4136" stroke="#FF4136" stroke-width="0.5"/>
<circle cx="99" cy="644" r="16.25" fill="#009F65" stroke="#009F65" stroke-width="0.5"/>
<circle cx="16.5" cy="672.5" r="16.25" fill="#FF4136" stroke="#FF4136" stroke-width="0.5"/>
<circle cx="49.5" cy="672.5" r="16.25" fill="#009F65" stroke="#009F65" stroke-width="0.5"/>
<circle cx="82.5" cy="672.5" r="16.25" fill="#219DFF" stroke="#219DFF" stroke-width="0.5"/>
<circle cy="701" r="16.25" fill="#009F65" stroke="#009F65" stroke-width="0.5"/>
<circle cx="33" cy="701" r="16.25" fill="#219DFF" stroke="#219DFF" stroke-width="0.5"/>
<circle cx="66" cy="701" r="16.25" fill="#FF4136" stroke="#FF4136" stroke-width="0.5"/>
<circle cx="99" cy="701" r="16.25" fill="#009F65" stroke="#009F65" stroke-width="0.5"/>
<circle cx="16.5" cy="729.5" r="16.25" fill="#FF4136" stroke="#FF4136" stroke-width="0.5"/>
<circle cx="49.5" cy="729.5" r="16.25" fill="#009F65" stroke="#009F65" stroke-width="0.5"/>
<circle cx="82.5" cy="729.5" r="16.25" fill="#219DFF" stroke="#219DFF" stroke-width="0.5"/>
<circle cy="758" r="16.25" fill="#009F65" stroke="#009F65" stroke-width="0.5"/>
<circle cx="33" cy="758" r="16.25" fill="#219DFF" stroke="#219DFF" stroke-width="0.5"/>
<circle cx="66" cy="758" r="16.25" fill="#FF4136" stroke="#FF4136" stroke-width="0.5"/>
<circle cx="99" cy="758" r="16.25" fill="#009F65" stroke="#009F65" stroke-width="0.5"/>
<circle cx="16.5" cy="786.5" r="16.25" fill="#FF4136" stroke="#FF4136" stroke-width="0.5"/>
<circle cx="49.5" cy="786.5" r="16.25" fill="#009F65" stroke="#009F65" stroke-width="0.5"/>
<circle cx="82.5" cy="786.5" r="16.25" fill="#219DFF" stroke="#219DFF" stroke-width="0.5"/>
<circle cy="815" r="16.25" fill="#009F65" stroke="#009F65" stroke-width="0.5"/>
<circle cx="33" cy="815" r="16.25" fill="#219DFF" stroke="#219DFF" stroke-width="0.5"/>
<circle cx="66" cy="815" r="16.25" fill="#FF4136" stroke="#FF4136" stroke-width="0.5"/>
<circle cx="99" cy="815" r="16.25" fill="#009F65" stroke="#009F65" stroke-width="0.5"/>
<circle cx="16.5" cy="843.5" r="16.25" fill="#FF4136" stroke="#FF4136" stroke-width="0.5"/>
<circle cx="49.5" cy="843.5" r="16.25" fill="#009F65" stroke="#009F65" stroke-width="0.5"/>
<circle cx="82.5" cy="843.5" r="16.25" fill="#219DFF" stroke="#219DFF" stroke-width="0.5"/>
<circle cy="872" r="16.25" fill="#009F65" stroke="#009F65" stroke-width="0.5"/>
<circle cx="33" cy="872" r="16.25" fill="#219DFF" stroke="#219DFF" stroke-width="0.5"/>
<circle cx="66" cy="872" r="16.25" fill="#FF4136" stroke="#FF4136" stroke-width="0.5"/>
<circle cx="99" cy="872" r="16.25" fill="#009F65" stroke="#009F65" stroke-width="0.5"/>
<circle cx="16.5" cy="900.5" r="16.25" fill="#FF4136" stroke="#FF4136" stroke-width="0.5"/>
<circle cx="49.5" cy="900.5" r="16.25" fill="#009F65" stroke="#009F65" stroke-width="0.5"/>
<circle cx="82.5" cy="900.5" r="16.25" fill="#219DFF" stroke="#219DFF" stroke-width="0.5"/>
<circle cy="929" r="16.25" fill="#009F65" stroke="#009F65" stroke-width="0.5"/>
<circle cx="33" cy="929" r="16.25" fill="#219DFF" stroke="#219DFF" stroke-width="0.5"/>
<circle cx="66" cy="929" r="16.25" fill="#FF4136" stroke="#FF4136" stroke-width="0.5"/>
<circle cx="99" cy="929" r="16.25" fill="#009F65" stroke="#009F65" stroke-width="0.5"/>
<circle cx="16.5" cy="957.5" r="16.25" fill="#FF4136" stroke="#FF4136" stroke-width="0.5"/>
<circle cx="49.5" cy="957.5" r="16.25" fill="#009F65" stroke="#009F65" stroke-width="0.5"/>
<circle cx="82.5" cy="957.5" r="16.25" fill="#219DFF" stroke="#219DFF" stroke-width="0.5"/>
<circle cy="986" r="16.25" fill="#009F65" stroke="#009F65" stroke-width="0.5"/>
<circle cx="33" cy="986" r="16.25" fill="#219DFF" stroke="#219DFF" stroke-width="0.5"/>
<circle cx="66" cy="986" r="16.25" fill="#FF4136" stroke="#FF4136" stroke-width="0.5"/>
<circle cx="99" cy="986" r="16.25" fill="#009F65" stroke="#009F65" stroke-width="0.5"/>
<circle cx="16.5" cy="1014.5" r="16.25" fill="#FF4136" stroke="#FF4136" stroke-width="0.5"/>
<circle cx="49.5" cy="1014.5" r="16.25" fill="#009F65" stroke="#009F65" stroke-width="0.5"/>
<circle cx="82.5" cy="1014.5" r="16.25" fill="#219DFF" stroke="#219DFF" stroke-width="0.5"/>
<circle cy="1043" r="16.25" fill="#009F65" stroke="#009F65" stroke-width="0.5"/>
<circle cx="33" cy="1043" r="16.25" fill="#219DFF" stroke="#219DFF" stroke-width="0.5"/>
<circle cx="66" cy="1043" r="16.25" fill="#FF4136" stroke="#FF4136" stroke-width="0.5"/>
<circle cx="99" cy="1043" r="16.25" fill="#009F65" stroke="#009F65" stroke-width="0.5"/>
</g>
<defs>
<clipPath id="clip0">
<rect width="99" height="1060" fill="white"/>
</clipPath>
</defs>
</svg>
